<svg xmlns="http://www.w3.org/2000/svg" width="27" height="20" viewBox="0 0 27 20"><title>3d</title><path d="M8.25,7,13.5,1.72,13,1.25A4.29,4.29,0,0,0,7,1.25L1.25,7a4.29,4.29,0,0,0,0,6.06L7,18.75a4.29,4.29,0,0,0,6.06,0l.47-.47L8.25,13A4.29,4.29,0,0,1,8.25,7Z" fill="#009bff"/><path d="M25.75,7,20,1.25a4.29,4.29,0,0,0-6.06,0l-.47.47L18.75,7a4.29,4.29,0,0,1,0,6.06L13.5,18.28l.47.47a4.29,4.29,0,0,0,6.06,0L25.75,13A4.29,4.29,0,0,0,25.75,7Z" fill="#ff4293"/><path d="M18.75,7,13.5,1.72,8.25,7a4.29,4.29,0,0,0,0,6.06l5.25,5.25L18.75,13A4.29,4.29,0,0,0,18.75,7Z" fill="#a62b93"/><path d="M8.07,9.05h1a1,1,0,0,0,.84-.4,1.92,1.92,0,0,0,.27-1.08,1.63,1.63,0,0,0-.27-1,.91.91,0,0,0-.75-.36.9.9,0,0,0-.71.34,1.35,1.35,0,0,0-.28.86H6.1A3,3,0,0,1,6.48,5.9a2.67,2.67,0,0,1,1.09-1,3.1,3.1,0,0,1,1.55-.38,3.18,3.18,0,0,1,2.32.82,3,3,0,0,1,.84,2.24A2.61,2.61,0,0,1,11.9,8.9a2.54,2.54,0,0,1-1,.95,2.24,2.24,0,0,1,1.13,1,3,3,0,0,1,.38,1.53,3,3,0,0,1-.92,2.3,3.34,3.34,0,0,1-2.39.86A2.93,2.93,0,0,1,6,12.43H8.09a1.58,1.58,0,0,0,.3,1,.93.93,0,0,0,.77.39,1,1,0,0,0,.85-.4,1.67,1.67,0,0,0,.32-1.06c0-1.06-.41-1.59-1.24-1.6h-1Z" fill="#fff"/><path d="M14,15.37V4.63h2.84a3.91,3.91,0,0,1,3,1.19A4.65,4.65,0,0,1,21,9.1v1.74a4.71,4.71,0,0,1-1.12,3.33,4,4,0,0,1-3.08,1.2Zm2.17-8.94v7.14h.65A1.8,1.8,0,0,0,18.36,13a3.32,3.32,0,0,0,.47-2V9.16a3.79,3.79,0,0,0-.42-2.1A1.69,1.69,0,0,0,17,6.43Z" fill="#fff"/></svg>