<svg xmlns="http://www.w3.org/2000/svg" width="26.98" height="20.01" viewBox="0 0 26.98 20.01"><title>5d</title><path d="M8.25,7,13.5,1.72,13,1.25a4.29,4.29,0,0,0-6,0L1.25,7a4.29,4.29,0,0,0,0,6.06L7,18.75a4.29,4.29,0,0,0,6.06,0l.47-.47L8.25,13A4.29,4.29,0,0,1,8.25,7Z" transform="translate(0 0)" fill="#009bff"/><path d="M25.75,7,20,1.25a4.29,4.29,0,0,0-6.06,0l-.47.47L18.75,7a4.29,4.29,0,0,1,0,6.06L13.5,18.28l.47.47a4.29,4.29,0,0,0,6.06,0L25.75,13A4.29,4.29,0,0,0,25.75,7Z" transform="translate(0 0)" fill="#fcb448"/><path d="M18.75,7,13.5,1.72,8.25,7a4.29,4.29,0,0,0,0,6.06l5.25,5.25L18.75,13A4.29,4.29,0,0,0,18.75,7Z" transform="translate(0 0)" fill="#308149"/><path d="M14,15.37V4.63h2.84a3.93,3.93,0,0,1,3,1.19A4.65,4.65,0,0,1,21,9.1v1.74a4.7,4.7,0,0,1-1.12,3.33,4,4,0,0,1-3.08,1.2Zm2.17-8.94v7.14h.65A1.78,1.78,0,0,0,18.36,13a3.34,3.34,0,0,0,.47-2V9.16a3.82,3.82,0,0,0-.42-2.1A1.68,1.68,0,0,0,17,6.43Z" transform="translate(0 0)" fill="#fff"/><path d="M6.26,10.1l.53-5.47H12V6.42H8.51l-.19,2.3a2.2,2.2,0,0,1,1.25-.4,2.43,2.43,0,0,1,2,.94,4.38,4.38,0,0,1,.72,2.68,3.85,3.85,0,0,1-.86,2.61,2.85,2.85,0,0,1-2.29,1,3.21,3.21,0,0,1-1.58-.41A3,3,0,0,1,6.47,14,3.27,3.27,0,0,1,6,12.39H8.12a1.92,1.92,0,0,0,.33,1,.89.89,0,0,0,.72.37.87.87,0,0,0,.8-.5,3.1,3.1,0,0,0,.28-1.49,2.49,2.49,0,0,0-.33-1.41A1.09,1.09,0,0,0,9,9.94a1.09,1.09,0,0,0-.91.4l-.14.19Z" transform="translate(0 0)" fill="#fff"/></svg>