<svg xmlns="http://www.w3.org/2000/svg" width="30" height="123" viewBox="0 0 30 123"><title>code</title><rect y="121" width="30" height="2" fill="#fff"/><rect y="119" width="30" height="1" fill="#fff"/><rect y="116" width="30" height="1" fill="#fff"/><rect y="110" width="30" height="2" fill="#fff"/><rect y="105" width="30" height="1" fill="#fff"/><rect y="102" width="30" height="1" fill="#fff"/><rect y="100" width="30" height="1" fill="#fff"/><rect y="94" width="30" height="2" fill="#fff"/><rect y="92" width="30" height="1" fill="#fff"/><rect y="88" width="30" height="2" fill="#fff"/><rect y="83" width="30" height="1" fill="#fff"/><rect y="81" width="30" height="1" fill="#fff"/><rect y="78" width="30" height="1" fill="#fff"/><rect y="71" width="30" height="4" fill="#fff"/><rect y="69" width="30" height="1" fill="#fff"/><rect y="67" width="30" height="1" fill="#fff"/><rect y="62" width="30" height="4" fill="#fff"/><rect y="59" width="30" height="1" fill="#fff"/><rect y="56" width="30" height="1" fill="#fff"/><rect y="52" width="30" height="2" fill="#fff"/><rect y="47" width="30" height="3" fill="#fff"/><rect y="45" width="30" height="1" fill="#fff"/><rect y="42" width="30" height="2" fill="#fff"/><rect y="39" width="30" height="1" fill="#fff"/><rect y="34" width="30" height="1" fill="#fff"/><rect y="31" width="30" height="2" fill="#fff"/><rect y="28" width="30" height="1" fill="#fff"/><rect y="22" width="30" height="2" fill="#fff"/><rect y="18" width="30" height="1" fill="#fff"/><rect y="16" width="30" height="1" fill="#fff"/><rect y="11" width="30" height="2" fill="#fff"/><rect y="5" width="30" height="3" fill="#fff"/><rect y="3" width="30" height="1" fill="#fff"/><rect width="30" height="2" fill="#fff"/></svg>