<svg xmlns="http://www.w3.org/2000/svg" width="19.4mm" height="19.4mm" viewBox="0 0 55 55">
  <title>kinos_ee</title>
  <path d="M27.5,0A27.5,27.5,0,1,0,55,27.5,27.5,27.5,0,0,0,27.5,0Zm0,6.88a5.89,5.89,0,1,1-5.89,5.89A5.89,5.89,0,0,1,27.5,6.88ZM7.88,21.13a5.89,5.89,0,1,1,3.79,7.42A5.9,5.9,0,0,1,7.88,21.13ZM23.61,42.88a5.9,5.9,0,1,1-1.31-8.23A5.89,5.89,0,0,1,23.61,42.88ZM27.5,29.79a2.29,2.29,0,1,1,2.29-2.29A2.28,2.28,0,0,1,27.5,29.79Zm12.12,14.4A5.89,5.89,0,1,1,40.93,36,5.89,5.89,0,0,1,39.62,44.19Zm3.71-15.64a5.89,5.89,0,1,1,3.79-7.42A5.89,5.89,0,0,1,43.33,28.55Z" fill="#fff" fill-rule="evenodd"/>
</svg>
