<svg xmlns="http://www.w3.org/2000/svg" width="50" height="50" viewBox="0 0 50 50"><title>kinos_ee_color</title><path d="M25,0A25,25,0,1,0,50,25,25,25,0,0,0,25,0Zm0,6.25a5.36,5.36,0,1,1-5.35,5.36A5.35,5.35,0,0,1,25,6.25Zm-17.84,13A5.36,5.36,0,1,1,10.61,26,5.36,5.36,0,0,1,7.16,19.21ZM21.46,39a5.36,5.36,0,1,1-1.2-7.49h0A5.36,5.36,0,0,1,21.47,39ZM25,27.08A2.08,2.08,0,1,1,27.08,25,2.08,2.08,0,0,1,25,27.08ZM36,40.17a5.35,5.35,0,1,1,1.16-7.48l0,0A5.35,5.35,0,0,1,36,40.17ZM39.39,26a5.35,5.35,0,1,1,3.45-6.74A5.35,5.35,0,0,1,39.39,26Z" transform="translate(0 0)" fill="#d7404b"/><g opacity="0.6"><path d="M33.7,17.36a4.23,4.23,0,0,0-.33.41c-.1.15-.19.3-.28.45s-.17.32-.24.48a4.81,4.81,0,0,0-.2.53,4.94,4.94,0,0,0-.15.55,5.58,5.58,0,0,0-.09.59c0,.21,0,.43,0,.65s0,.47.07.71a7.22,7.22,0,0,0,.18.74.08.08,0,0,0,0,0,5.29,5.29,0,0,0,3,3.28l.19.08a5.32,5.32,0,0,0,2.48.31,4.94,4.94,0,0,0,1-.23h0a4.93,4.93,0,0,0,.75-.31,6.27,6.27,0,0,0,.62-.36,5,5,0,0,0,.5-.38,5.29,5.29,0,0,0,.41-.41,4.47,4.47,0,0,0,.35-.41c.1-.14.2-.28.29-.43l.24-.43c.07-.15.13-.3.19-.45a4,4,0,0,0,.15-.45,3.43,3.43,0,0,0,.11-.46c0-.15,0-.31.07-.47s0-.31,0-.47a4,4,0,0,0,0-.49c0-.17,0-.34-.07-.5a4.54,4.54,0,0,0-.12-.53c0-.07,0-.13,0-.19s-.09-.24-.14-.36a4.53,4.53,0,0,0-.28-.59A5.74,5.74,0,0,0,42,17.6a5.5,5.5,0,0,0-2.79-1.89A4.93,4.93,0,0,0,38,15.52a4.61,4.61,0,0,0-.83,0,5.39,5.39,0,0,0-.68.12,2.85,2.85,0,0,0-.39.11l-.21.08a4.77,4.77,0,0,0-.52.22q-.24.12-.48.27c-.15.09-.29.2-.43.3s-.27.23-.4.35S33.81,17.23,33.7,17.36Z" transform="translate(0 0)" fill="none"/><path d="M21.52,15.65a5.88,5.88,0,0,0,.76.55,7.92,7.92,0,0,0,.71.37,6.36,6.36,0,0,0,.66.2,6.18,6.18,0,0,0,.62.12,4.07,4.07,0,0,0,.61.06H25c.15,0,.3,0,.45,0a5.14,5.14,0,0,0,.55-.06,4.25,4.25,0,0,0,.51-.14c.17,0,.34-.09.5-.15s.31-.16.46-.24a4.92,4.92,0,0,0,.45-.24c.14-.09.27-.21.4-.31a4.39,4.39,0,0,0,.4-.33c.13-.13.24-.27.36-.41a4.46,4.46,0,0,0,.34-.42,3.29,3.29,0,0,0,.29-.52,3.61,3.61,0,0,0,.27-.56,6.37,6.37,0,0,0,.21-.66,6.14,6.14,0,0,0,.12-.86c0-.14,0-.27,0-.41a6.4,6.4,0,0,0-.08-.88A5.51,5.51,0,0,0,29.6,8.9a5.9,5.9,0,0,0-.8-1.06,7.08,7.08,0,0,0-.59-.5A6.37,6.37,0,0,0,27.66,7a5.45,5.45,0,0,0-.53-.29,3.52,3.52,0,0,0-.49-.16,4.42,4.42,0,0,0-.48-.15,4,4,0,0,0-.48-.07,3.73,3.73,0,0,0-.47,0l-.21,0c-.08,0-.16,0-.25,0l-.45,0a3.5,3.5,0,0,0-.45.07c-.15,0-.3.09-.45.13s-.3.08-.44.14l-.44.23c-.15.08-.3.15-.44.24s-.29.22-.43.33-.3.23-.43.36-.28.33-.42.5a4.89,4.89,0,0,0-.39.58,4.89,4.89,0,0,0-.37.72,5.26,5.26,0,0,0-.31,1.18,5.42,5.42,0,0,0-.08.81,5.29,5.29,0,0,0,1,3.15A5.38,5.38,0,0,0,21.52,15.65Z" transform="translate(0 0)" fill="none"/><path d="M35.41,40.53a4.86,4.86,0,0,0,.61-.36l0,0c.16-.13.3-.27.45-.41a5.55,5.55,0,0,0,.42-.42,3.43,3.43,0,0,0,.32-.43,4,4,0,0,0,.28-.43,4.39,4.39,0,0,0,.21-.44,4.17,4.17,0,0,0,.19-.44,3.69,3.69,0,0,0,.11-.45c0-.15.09-.3.12-.45s0-.31,0-.46,0-.31,0-.46,0-.32-.05-.48,0-.31-.06-.47a3.92,3.92,0,0,0-.13-.49c0-.16-.1-.33-.16-.49s-.17-.34-.26-.51-.19-.36-.31-.54l0-.05,0,0a4.91,4.91,0,0,0-.43-.48,5.28,5.28,0,0,0-.75-.67,5.39,5.39,0,0,0-3.29-1,5.09,5.09,0,0,0-1,.13,5,5,0,0,0-.72.23l-.6.27a5.48,5.48,0,0,0-.52.31,1.19,1.19,0,0,0-.15.09,2.35,2.35,0,0,0-.29.26c-.14.12-.28.23-.41.36s-.22.26-.33.4l-.31.41c-.09.15-.16.29-.24.44s-.15.3-.22.46-.11.32-.16.48a4.54,4.54,0,0,0-.12.5,3.21,3.21,0,0,0-.07.53,3.32,3.32,0,0,0,0,.55,5.09,5.09,0,0,0,0,.55c0,.19,0,.38.08.57a5,5,0,0,0,.21.62,3.36,3.36,0,0,0,.28.65,4.78,4.78,0,0,0,.38.65s0,0,0,0a5.51,5.51,0,0,0,.6.67,5.2,5.2,0,0,0,1.07.81,5.31,5.31,0,0,0,3.09.68,5.22,5.22,0,0,0,1.29-.28A4.54,4.54,0,0,0,35.41,40.53Z" transform="translate(0 0)" fill="none"/><path d="M25,27.08h0a2,2,0,0,0,.65-.13,2,2,0,0,0,.88-.62,1.77,1.77,0,0,0,.28-.43,2.37,2.37,0,0,0,.18-.53,2.22,2.22,0,0,0,0-.37,1.84,1.84,0,0,0,0-.33A2.08,2.08,0,0,0,25.33,23a1.84,1.84,0,0,0-.33,0,1.5,1.5,0,0,0-.37,0,1.77,1.77,0,0,0-.52.17,1.83,1.83,0,0,0-.44.28,1.85,1.85,0,0,0-.36.38,2,2,0,0,0-.26.51,2.28,2.28,0,0,0-.13.64V25a2,2,0,0,0,.25,1,2.1,2.1,0,0,0,.86.86,2,2,0,0,0,1,.25Z" transform="translate(0 0)" fill="none"/><path d="M39,45.71l-1.34,0,.85.33Z" transform="translate(0 0)" fill="#e26e59"/><path d="M4.29,11c-.11.16-.21.33-.31.49l.33.85C4.3,11.88,4.29,11.44,4.29,11Z" transform="translate(0 0)" fill="#e26e59"/><path d="M39,45.71l.65-.46c-1.07,0-2.13,0-3.17,0l1.18.47Z" transform="translate(0 0)" fill="#e26f59"/><path d="M4.75,10.34,4.29,11c0,.45,0,.89,0,1.34.16.39.31.79.47,1.18C4.73,12.47,4.73,11.41,4.75,10.34Z" transform="translate(0 0)" fill="#e26f59"/><path d="M39.66,45.25l.61-.46a45.51,45.51,0,0,1-5-.12l1.2.55C37.53,45.27,38.59,45.27,39.66,45.25Z" transform="translate(0 0)" fill="#e2705a"/><path d="M5.21,9.73l-.46.61c0,1.07,0,2.13,0,3.17.18.41.37.8.55,1.2A45.51,45.51,0,0,1,5.21,9.73Z" transform="translate(0 0)" fill="#e2705a"/><path d="M5.66,9.15l-.45.58a45.51,45.51,0,0,0,.12,5c.19.44.38.87.59,1.3A44.35,44.35,0,0,1,5.66,9.15Z" transform="translate(0 0)" fill="#e2715a"/><path d="M40.27,44.79l.58-.45A44.35,44.35,0,0,1,34,44.08c.43.21.86.4,1.3.59A45.51,45.51,0,0,0,40.27,44.79Z" transform="translate(0 0)" fill="#e2715a"/><path d="M6.12,8.63l-.46.52A44.35,44.35,0,0,0,5.92,16c.19.41.41.82.62,1.23A43.58,43.58,0,0,1,6.12,8.63Z" transform="translate(0 0)" fill="#e3725a"/><path d="M40.85,44.34l.52-.46a43.58,43.58,0,0,1-8.61-.42c.41.21.82.43,1.23.62A44.35,44.35,0,0,0,40.85,44.34Z" transform="translate(0 0)" fill="#e3725a"/><path d="M41.37,43.88l.52-.45a41.71,41.71,0,0,1-10.57-.72l1.44.75A43.58,43.58,0,0,0,41.37,43.88Z" transform="translate(0 0)" fill="#e3735a"/><path d="M6.57,8.11l-.45.52a43.58,43.58,0,0,0,.42,8.61c.25.48.49,1,.75,1.44A41.71,41.71,0,0,1,6.57,8.11Z" transform="translate(0 0)" fill="#e3735a"/><path d="M41.89,43.43l.48-.46a41.26,41.26,0,0,1-12.45-1.06c.47.27.93.55,1.4.8A41.71,41.71,0,0,0,41.89,43.43Z" transform="translate(0 0)" fill="#e3745b"/><path d="M7,7.63l-.46.48a41.71,41.71,0,0,0,.72,10.57.59.59,0,0,1,0,.08,6.42,6.42,0,0,1,.33-.64A42.06,42.06,0,0,1,7,7.63Z" transform="translate(0 0)" fill="#e3745b"/><path d="M42.37,43l.48-.47A39.76,39.76,0,0,1,28.35,41l1.57.94A41.26,41.26,0,0,0,42.37,43Z" transform="translate(0 0)" fill="#e3755b"/><path d="M7.5,7.15,7,7.63a42.06,42.06,0,0,0,.63,10.49A4.91,4.91,0,0,1,8,17.57,42.05,42.05,0,0,1,7.5,7.15Z" transform="translate(0 0)" fill="#e3755b"/><path d="M8,6.71l-.46.44A42.05,42.05,0,0,0,8,17.57a4.19,4.19,0,0,1,.39-.45A42.55,42.55,0,0,1,8,6.71Z" transform="translate(0 0)" fill="#e4765b"/><path d="M42.85,42.5l.44-.46a38.61,38.61,0,0,1-16.72-2.21c.58.39,1.18.77,1.78,1.14A39.76,39.76,0,0,0,42.85,42.5Z" transform="translate(0 0)" fill="#e4765b"/><path d="M43.29,42l.42-.47a42.13,42.13,0,0,1-10.41-.4,5.31,5.31,0,0,1-3.09-.68,30.49,30.49,0,0,1-5.65-2.09c.66.49,1.33,1,2,1.43A38.61,38.61,0,0,0,43.29,42Z" transform="translate(0 0)" fill="#e4775c"/><path d="M8.43,6.29,8,6.71a42.55,42.55,0,0,0,.47,10.41l.41-.38A42,42,0,0,1,8.43,6.29Z" transform="translate(0 0)" fill="#e4775c"/><path d="M12.17,26.21c.5.67,1,1.33,1.54,2-.41-.64-.81-1.3-1.17-2A2.32,2.32,0,0,1,12.17,26.21Z" transform="translate(0 0)" fill="#e4785c"/><path d="M34.59,40.89a5.22,5.22,0,0,1-1.29.28,42.13,42.13,0,0,0,10.41.4c.14-.15.27-.3.4-.46A42.35,42.35,0,0,1,34.59,40.89Z" transform="translate(0 0)" fill="#e4785c"/><path d="M8.89,5.89l-.46.4a42,42,0,0,0,.41,10.45,4.56,4.56,0,0,1,.42-.31A41.78,41.78,0,0,1,8.89,5.89Z" transform="translate(0 0)" fill="#e4785c"/><path d="M29.14,39.68a29.7,29.7,0,0,1-6.74-3s0,.05,0,.07c.71.58,1.43,1.13,2.17,1.67a30.49,30.49,0,0,0,5.65,2.09A5.2,5.2,0,0,1,29.14,39.68Z" transform="translate(0 0)" fill="#e4785c"/><path d="M12.54,26.2c.36.68.76,1.34,1.17,2q1,1.26,2.16,2.46a2.44,2.44,0,0,1,.26-.06,27.46,27.46,0,0,1-3-4.44A5.14,5.14,0,0,1,12.54,26.2Z" transform="translate(0 0)" fill="#e4795c"/><path d="M28.54,39s0,0,0,0a29.84,29.84,0,0,1-6-2.85,5.52,5.52,0,0,1-.07.55,29.7,29.7,0,0,0,6.74,3A5.51,5.51,0,0,1,28.54,39Z" transform="translate(0 0)" fill="#e4795c"/><path d="M35.41,40.53a4.54,4.54,0,0,1-.82.36,42.35,42.35,0,0,0,9.52.22l.38-.46A42.86,42.86,0,0,1,35.41,40.53Z" transform="translate(0 0)" fill="#e4795c"/><path d="M9.35,5.51l-.46.38a41.78,41.78,0,0,0,.37,10.54,3.78,3.78,0,0,1,.43-.26A41.83,41.83,0,0,1,9.35,5.51Z" transform="translate(0 0)" fill="#e4795c"/><path d="M9.81,5.15l-.46.36a41.83,41.83,0,0,0,.34,10.66c.14-.08.29-.15.44-.22A41.56,41.56,0,0,1,9.81,5.15Z" transform="translate(0 0)" fill="#e47a5d"/><path d="M28.13,38.31a28.18,28.18,0,0,1-5.68-2.84c0,.21,0,.42,0,.64a29.84,29.84,0,0,0,6,2.85A4.78,4.78,0,0,1,28.13,38.31Z" transform="translate(0 0)" fill="#e47a5d"/><path d="M13.09,26.14a27.46,27.46,0,0,0,3,4.44c.2,0,.41,0,.61-.07A26.61,26.61,0,0,1,13.62,26,3.12,3.12,0,0,1,13.09,26.14Z" transform="translate(0 0)" fill="#e47a5d"/><path d="M36.05,40.15l0,0a4.86,4.86,0,0,1-.61.36,42.86,42.86,0,0,0,9.08.12l.36-.46A42.35,42.35,0,0,1,36.05,40.15Z" transform="translate(0 0)" fill="#e47a5d"/><path d="M10.27,4.81l-.46.34A41.56,41.56,0,0,0,10.13,16l.45-.17A41.14,41.14,0,0,1,10.27,4.81Z" transform="translate(0 0)" fill="#e57b5d"/><path d="M13.62,26a26.61,26.61,0,0,0,3.12,4.48c.24,0,.46,0,.7,0a26.67,26.67,0,0,1-3.32-4.61A4.74,4.74,0,0,1,13.62,26Z" transform="translate(0 0)" fill="#e57b5d"/><path d="M27.85,37.66a27.73,27.73,0,0,1-5.48-2.87c0,.22.06.45.08.68a28.18,28.18,0,0,0,5.68,2.84A3.36,3.36,0,0,1,27.85,37.66Z" transform="translate(0 0)" fill="#e57b5d"/><path d="M36.5,39.74c-.15.14-.29.28-.45.41a42.35,42.35,0,0,0,8.8,0c.12-.15.23-.3.34-.46A42.07,42.07,0,0,1,36.5,39.74Z" transform="translate(0 0)" fill="#e57b5d"/><path d="M14.12,25.88a26.67,26.67,0,0,0,3.32,4.61,5.31,5.31,0,0,1,.8.11,26.54,26.54,0,0,1-3.65-4.93A4,4,0,0,1,14.12,25.88Z" transform="translate(0 0)" fill="#e57c5d"/><path d="M27.64,37a27.45,27.45,0,0,1-5.47-3,6.53,6.53,0,0,1,.2.76,27.73,27.73,0,0,0,5.48,2.87A5,5,0,0,1,27.64,37Z" transform="translate(0 0)" fill="#e57c5d"/><path d="M10.72,4.48l-.45.33a41.14,41.14,0,0,0,.31,11l.46-.13A40.56,40.56,0,0,1,10.72,4.48Z" transform="translate(0 0)" fill="#e57c5d"/><path d="M36.92,39.32a5.55,5.55,0,0,1-.42.42,42.07,42.07,0,0,0,8.69,0l.33-.45A42.67,42.67,0,0,1,36.92,39.32Z" transform="translate(0 0)" fill="#e57c5d"/><path d="M27.56,36.47A27,27,0,0,1,21.69,33a6.13,6.13,0,0,1,.48,1,27.45,27.45,0,0,0,5.47,3C27.6,36.85,27.59,36.66,27.56,36.47Z" transform="translate(0 0)" fill="#e57d5d"/><path d="M11.18,4.17l-.46.31A40.56,40.56,0,0,0,11,15.65l.46-.09A40.22,40.22,0,0,1,11.18,4.17Z" transform="translate(0 0)" fill="#e57d5d"/><path d="M15,25.43a4.92,4.92,0,0,1-.45.24,26.54,26.54,0,0,0,3.65,4.93,4.75,4.75,0,0,1,1,.33.94.94,0,0,1-.1-.1A26,26,0,0,1,15,25.43Z" transform="translate(0 0)" fill="#e57d5d"/><path d="M37.24,38.89a3.43,3.43,0,0,1-.32.43,42.67,42.67,0,0,0,8.6,0l.31-.46A41.9,41.9,0,0,1,37.24,38.89Z" transform="translate(0 0)" fill="#e57d5d"/><path d="M37.52,38.46a4,4,0,0,1-.28.43,41.9,41.9,0,0,0,8.59-.07l.3-.46A42.16,42.16,0,0,1,37.52,38.46Z" transform="translate(0 0)" fill="#e57e5e"/><path d="M11.64,3.87l-.46.3a40.22,40.22,0,0,0,.32,11.39l.47,0A40.22,40.22,0,0,1,11.64,3.87Z" transform="translate(0 0)" fill="#e57e5e"/><path d="M27.52,35.92a26.29,26.29,0,0,1-8-5.46,25.87,25.87,0,0,1-4.08-5.32,3.93,3.93,0,0,1-.42.29,26,26,0,0,0,4.13,5.4.94.94,0,0,0,.1.1,4.84,4.84,0,0,1,1,.56h0A5.29,5.29,0,0,1,21.69,33a27,27,0,0,0,5.87,3.44A5.09,5.09,0,0,1,27.52,35.92Z" transform="translate(0 0)" fill="#e57e5e"/><path d="M27.52,35.92a3.32,3.32,0,0,1,0-.55A26.27,26.27,0,0,1,19.9,30.1a25.84,25.84,0,0,1-4-5.29,4.12,4.12,0,0,1-.4.33,25.87,25.87,0,0,0,4.08,5.32A26.29,26.29,0,0,0,27.52,35.92Z" transform="translate(0 0)" fill="#e67f5e"/><path d="M37.73,38a4.39,4.39,0,0,1-.21.44,42.16,42.16,0,0,0,8.61-.1l.29-.46A42.26,42.26,0,0,1,37.73,38Z" transform="translate(0 0)" fill="#e67f5e"/><path d="M12.1,3.58l-.46.29A40.22,40.22,0,0,0,12,15.52h.48A40,40,0,0,1,12.1,3.58Z" transform="translate(0 0)" fill="#e67f5e"/><path d="M27.55,35.37a3.21,3.21,0,0,1,.07-.53,25.75,25.75,0,0,1-7.35-5.11,25.45,25.45,0,0,1-4-5.29,4.4,4.4,0,0,1-.38.37,25.84,25.84,0,0,0,4,5.29A26.27,26.27,0,0,0,27.55,35.37Z" transform="translate(0 0)" fill="#e6805e"/><path d="M12.56,3.32l-.46.26a40,40,0,0,0,.35,11.93l.49,0A39.38,39.38,0,0,1,12.56,3.32Z" transform="translate(0 0)" fill="#e6805e"/><path d="M37.92,37.58a4.17,4.17,0,0,1-.19.44,42.26,42.26,0,0,0,8.69-.12l.26-.46A42.28,42.28,0,0,1,37.92,37.58Z" transform="translate(0 0)" fill="#e6805e"/><path d="M27.62,34.84a4.54,4.54,0,0,1,.12-.5,25.52,25.52,0,0,1-7.1-5A25,25,0,0,1,16.58,24c-.11.14-.22.29-.34.42a25.45,25.45,0,0,0,4,5.29A25.75,25.75,0,0,0,27.62,34.84Z" transform="translate(0 0)" fill="#e6815f"/><path d="M38,37.13a3.69,3.69,0,0,1-.11.45,42.28,42.28,0,0,0,8.76-.14c.09-.15.18-.3.26-.46A41.06,41.06,0,0,1,38,37.13Z" transform="translate(0 0)" fill="#e6815f"/><path d="M13,3.06c-.16.08-.31.17-.46.26a39.38,39.38,0,0,0,.38,12.23,4.37,4.37,0,0,1,.5.09A38.89,38.89,0,0,1,13,3.06Z" transform="translate(0 0)" fill="#e6815f"/><path d="M27.74,34.34c.05-.16.1-.32.16-.48a24.87,24.87,0,0,1-11-10.32c-.09.16-.2.32-.31.48a25,25,0,0,0,4.06,5.34A25.52,25.52,0,0,0,27.74,34.34Z" transform="translate(0 0)" fill="#e6825f"/><path d="M13.47,2.82,13,3.06a38.89,38.89,0,0,0,.42,12.58l.47.13h0A38.15,38.15,0,0,1,13.47,2.82Z" transform="translate(0 0)" fill="#e6825f"/><path d="M38.15,36.68c0,.15-.08.3-.12.45A41.06,41.06,0,0,0,46.94,37c.09-.15.16-.3.24-.45A40.93,40.93,0,0,1,38.15,36.68Z" transform="translate(0 0)" fill="#e6825f"/><path d="M27.9,33.86c.07-.16.14-.31.22-.46a25,25,0,0,1-6.75-4.77A25,25,0,0,1,17.17,23a5.68,5.68,0,0,1-.28.55,24.87,24.87,0,0,0,11,10.32Z" transform="translate(0 0)" fill="#e7835f"/><path d="M13.92,2.59l-.45.23a38.15,38.15,0,0,0,.48,13,5.25,5.25,0,0,1,.55.22A37.71,37.71,0,0,1,13.92,2.59Z" transform="translate(0 0)" fill="#e7835f"/><path d="M38.18,36.22c0,.15,0,.31,0,.46a40.93,40.93,0,0,0,9-.15c.08-.15.16-.3.23-.45A40.92,40.92,0,0,1,38.18,36.22Z" transform="translate(0 0)" fill="#e7835f"/><path d="M14.38,2.37l-.46.22A37.71,37.71,0,0,0,14.5,16a6.45,6.45,0,0,1,.58.31A37,37,0,0,1,14.38,2.37Z" transform="translate(0 0)" fill="#e78460"/><path d="M38.21,35.76c0,.15,0,.31,0,.46a40.92,40.92,0,0,0,9.23-.14c.08-.15.15-.3.22-.46A39.78,39.78,0,0,1,38.21,35.76Z" transform="translate(0 0)" fill="#e78460"/><path d="M28.12,33.4c.08-.15.15-.29.24-.44a24.39,24.39,0,0,1-11-10.6.83.83,0,0,1,0,.15,3.41,3.41,0,0,1-.18.48,25,25,0,0,0,4.2,5.64A25,25,0,0,0,28.12,33.4Z" transform="translate(0 0)" fill="#e78460"/><path d="M38.16,35.28c0,.16,0,.32.05.48a39.78,39.78,0,0,0,9.42-.14l.21-.45A38.85,38.85,0,0,1,38.16,35.28Z" transform="translate(0 0)" fill="#e78560"/><path d="M28.36,33l.31-.41a24.12,24.12,0,0,1-11.11-11,4.57,4.57,0,0,1-.17.8,24.39,24.39,0,0,0,11,10.6Z" transform="translate(0 0)" fill="#e78560"/><path d="M14.83,2.16l-.45.21a37,37,0,0,0,.7,13.94,6.61,6.61,0,0,1,.6.44A36.45,36.45,0,0,1,14.83,2.16Z" transform="translate(0 0)" fill="#e78560"/><path d="M38.1,34.81c0,.16,0,.31.06.47a38.85,38.85,0,0,0,9.68-.11c.06-.15.13-.29.2-.45A38.56,38.56,0,0,1,38.1,34.81Z" transform="translate(0 0)" fill="#e78660"/><path d="M15.28,2l-.45.2a36.45,36.45,0,0,0,.85,14.59,5,5,0,0,1,.76.77A35.22,35.22,0,0,1,15.28,2Z" transform="translate(0 0)" fill="#e78660"/><path d="M28.67,32.55c.11-.14.21-.27.33-.4a24.35,24.35,0,0,1-6.52-4.63,24.23,24.23,0,0,1-4.88-7,5.61,5.61,0,0,1,0,1.08,24.12,24.12,0,0,0,11.11,11Z" transform="translate(0 0)" fill="#e78660"/><path d="M38,34.32a3.92,3.92,0,0,1,.13.49A38.56,38.56,0,0,0,48,34.72c.06-.14.11-.29.17-.44A38.2,38.2,0,0,1,38,34.32Z" transform="translate(0 0)" fill="#e88760"/><path d="M29,32.15c.13-.13.27-.24.41-.36a24.05,24.05,0,0,1-6.56-4.64c-6.22-6.21-8.46-15.34-7.13-25.36L15.28,2a35.22,35.22,0,0,0,1.16,15.56,5.38,5.38,0,0,1,1.16,3,24.23,24.23,0,0,0,4.88,7A24.35,24.35,0,0,0,29,32.15Z" transform="translate(0 0)" fill="#e88760"/><path d="M22.85,27.15a24.05,24.05,0,0,0,6.56,4.64,2.35,2.35,0,0,1,.29-.26,1.19,1.19,0,0,1,.15-.09,23.9,23.9,0,0,1-6.64-4.65c-6.16-6.17-8.37-15.23-7-25.18l-.45.18C14.39,11.81,16.63,20.94,22.85,27.15Z" transform="translate(0 0)" fill="#e88861"/><path d="M37.81,33.83c.06.16.11.33.16.49a38.2,38.2,0,0,0,10.24,0l.18-.45A37.11,37.11,0,0,1,37.81,33.83Z" transform="translate(0 0)" fill="#e88861"/><path d="M37.55,33.32c.09.17.18.34.26.51a37.11,37.11,0,0,0,10.58,0c.06-.15.11-.29.16-.44A36.77,36.77,0,0,1,37.55,33.32Z" transform="translate(0 0)" fill="#e88961"/><path d="M23.21,26.79a23.9,23.9,0,0,0,6.64,4.65,5.48,5.48,0,0,1,.52-.31A23.51,23.51,0,0,1,24,26.83a2.1,2.1,0,0,1-.86-.86c-5.79-6.1-7.86-14.89-6.56-24.52l-.44.16C14.84,11.56,17.05,20.62,23.21,26.79Z" transform="translate(0 0)" fill="#e88961"/><path d="M25.06,27.08H25a2,2,0,0,1-1-.25,23.51,23.51,0,0,0,6.34,4.3l.6-.27A23.79,23.79,0,0,1,25.06,27.08Z" transform="translate(0 0)" fill="#e88a61"/><path d="M37.24,32.78c.12.18.21.36.31.54a36.77,36.77,0,0,0,11,.07c.06-.15.1-.3.15-.45A36.21,36.21,0,0,1,37.24,32.78Z" transform="translate(0 0)" fill="#e88a61"/><path d="M23.17,26a2,2,0,0,1-.25-1v-.06c-5.27-6-7.11-14.44-5.86-23.64l-.45.15C15.31,11.08,17.38,19.87,23.17,26Z" transform="translate(0 0)" fill="#e88a61"/><path d="M25.06,27.08A23.79,23.79,0,0,0,31,30.86a5,5,0,0,1,.72-.23,23.28,23.28,0,0,1-6-3.68A2,2,0,0,1,25.06,27.08Z" transform="translate(0 0)" fill="#e88b62"/><path d="M22.92,24.94a2.28,2.28,0,0,1,.13-.64c-5-5.94-6.78-14.18-5.55-23.15-.15,0-.3.1-.44.15C15.81,10.5,17.65,18.93,22.92,24.94Z" transform="translate(0 0)" fill="#e88b62"/><path d="M36.75,32.21a4.91,4.91,0,0,1,.43.48l0,0,0,.05a36.21,36.21,0,0,0,11.46.16c0-.14.11-.29.15-.44A35.58,35.58,0,0,1,36.75,32.21Z" transform="translate(0 0)" fill="#e88b62"/><path d="M23.05,24.3a2,2,0,0,1,.26-.51c-4.89-5.87-6.58-14-5.37-22.77l-.44.13C16.27,10.12,18,18.36,23.05,24.3Z" transform="translate(0 0)" fill="#e98c62"/><path d="M36,31.54a5.28,5.28,0,0,1,.75.67,35.58,35.58,0,0,0,12.1.29c0-.14.09-.29.13-.44A34.52,34.52,0,0,1,36,31.54Z" transform="translate(0 0)" fill="#e98c62"/><path d="M31.69,30.63a5.09,5.09,0,0,1,1-.13,23.43,23.43,0,0,1-6.5-3.81,1.83,1.83,0,0,1-.5.26A23.28,23.28,0,0,0,31.69,30.63Z" transform="translate(0 0)" fill="#e98c62"/><path d="M23.31,23.79a1.85,1.85,0,0,1,.36-.38C18.85,17.6,17.18,9.61,18.38.89L17.94,1C16.73,9.83,18.42,17.92,23.31,23.79Z" transform="translate(0 0)" fill="#e98d62"/><path d="M26.59,26.33a1.85,1.85,0,0,1-.38.36,23.43,23.43,0,0,0,6.5,3.81,5.39,5.39,0,0,1,3.29,1,34.52,34.52,0,0,0,13,.52c0-.14.09-.29.13-.44C40.39,32.82,32.4,31.15,26.59,26.33Z" transform="translate(0 0)" fill="#e98d62"/><path d="M26.87,25.9a1.77,1.77,0,0,1-.28.43c5.81,4.82,13.8,6.49,22.52,5.29l.12-.44C40.57,32.37,32.63,30.71,26.87,25.9Z" transform="translate(0 0)" fill="#e98e63"/><path d="M23.67,23.41a1.83,1.83,0,0,1,.44-.28C19.29,17.37,17.63,9.43,18.82.77l-.44.12C17.18,9.61,18.85,17.6,23.67,23.41Z" transform="translate(0 0)" fill="#e98e63"/><path d="M27.05,25.37a2.37,2.37,0,0,1-.18.53c5.76,4.81,13.7,6.47,22.36,5.28,0-.14.06-.29.1-.43C40.68,31.93,32.75,30.25,27.05,25.37Z" transform="translate(0 0)" fill="#e98f63"/><path d="M24.11,23.13a1.77,1.77,0,0,1,.52-.17C19.75,17.25,18.07,9.32,19.25.67l-.43.1C17.63,9.43,19.29,17.37,24.11,23.13Z" transform="translate(0 0)" fill="#e98f63"/><path d="M24.63,23a1.5,1.5,0,0,1,.37,0,1.84,1.84,0,0,1,.33,0,22.63,22.63,0,0,1-4.64-8.19,5.29,5.29,0,0,1-1-3.15,5.42,5.42,0,0,1,.08-.81,34.32,34.32,0,0,1,0-10.23l-.44.1C18.07,9.32,19.75,17.25,24.63,23Z" transform="translate(0 0)" fill="#ea9063"/><path d="M27.05,24.67a1.84,1.84,0,0,1,0,.33,2.22,2.22,0,0,1,0,.37c5.7,4.88,13.63,6.56,22.28,5.38,0-.15.07-.29.1-.44C40.7,31.5,32.71,29.73,27.05,24.67Z" transform="translate(0 0)" fill="#ea9063"/><path d="M26.52,23.48a22.17,22.17,0,0,1-5-7.83,5.38,5.38,0,0,1-.83-.89A22.63,22.63,0,0,0,25.33,23a2.08,2.08,0,0,1,1.72,1.72c5.66,5.06,13.65,6.83,22.38,5.64l.09-.43C40.43,31.11,32.16,29.11,26.52,23.48Z" transform="translate(0 0)" fill="#ea9163"/><path d="M19.73,10.8A5.26,5.26,0,0,1,20,9.62,34.62,34.62,0,0,1,20.12.48l-.43.09A34.32,34.32,0,0,0,19.73,10.8Z" transform="translate(0 0)" fill="#ea9163"/><path d="M26.89,23.11a21.68,21.68,0,0,1-4.61-6.91,5.88,5.88,0,0,1-.76-.55,22.17,22.17,0,0,0,5,7.83c5.64,5.63,13.91,7.63,23,6.4,0-.15,0-.29.08-.44C40.62,30.65,32.45,28.67,26.89,23.11Z" transform="translate(0 0)" fill="#ea9264"/><path d="M20,9.62a4.89,4.89,0,0,1,.37-.72A34.25,34.25,0,0,1,20.56.4l-.44.08A34.62,34.62,0,0,0,20,9.62Z" transform="translate(0 0)" fill="#ea9264"/><path d="M27.26,22.74A21.12,21.12,0,0,1,23,16.57a7.92,7.92,0,0,1-.71-.37,21.68,21.68,0,0,0,4.61,6.91c5.56,5.56,13.73,7.54,22.71,6.33,0-.14,0-.29.08-.43C40.82,30.2,32.75,28.23,27.26,22.74Z" transform="translate(0 0)" fill="#ea9364"/><path d="M20.41,8.9a4.89,4.89,0,0,1,.39-.58,34.82,34.82,0,0,1,.19-8L20.56.4A34.25,34.25,0,0,0,20.41,8.9Z" transform="translate(0 0)" fill="#ea9364"/><path d="M20.8,8.32c.14-.17.27-.35.42-.5a34.44,34.44,0,0,1,.2-7.56L21,.32A34.82,34.82,0,0,0,20.8,8.32Z" transform="translate(0 0)" fill="#eb9464"/><path d="M27.63,22.37a20.93,20.93,0,0,1-4-5.6,6.36,6.36,0,0,1-.66-.2,21.12,21.12,0,0,0,4.27,6.17C32.75,28.23,40.82,30.2,49.68,29l.06-.43C41,29.74,33.05,27.79,27.63,22.37Z" transform="translate(0 0)" fill="#eb9464"/><path d="M21.22,7.82c.13-.13.29-.24.43-.36A34.23,34.23,0,0,1,21.85.2l-.43.06A34.44,34.44,0,0,0,21.22,7.82Z" transform="translate(0 0)" fill="#eb9565"/><path d="M28,22a20.27,20.27,0,0,1-3.73-5.11,6.18,6.18,0,0,1-.62-.12,20.93,20.93,0,0,0,4,5.6c5.42,5.42,13.37,7.37,22.11,6.21l.06-.43C41.18,29.28,33.34,27.35,28,22Z" transform="translate(0 0)" fill="#eb9565"/><path d="M28.36,21.64A20.62,20.62,0,0,1,24.88,17a4.07,4.07,0,0,1-.61-.06A20.27,20.27,0,0,0,28,22c5.34,5.35,13.18,7.28,21.8,6.15,0-.15,0-.29.05-.43C41.36,28.82,33.64,26.91,28.36,21.64Z" transform="translate(0 0)" fill="#eb9765"/><path d="M21.65,7.46c.14-.11.28-.23.43-.33a33.58,33.58,0,0,1,.2-7L21.85.2A34.23,34.23,0,0,0,21.65,7.46Z" transform="translate(0 0)" fill="#eb9765"/><path d="M22.08,7.13c.14-.09.29-.16.44-.24A33,33,0,0,1,22.71.11l-.43,0A33.58,33.58,0,0,0,22.08,7.13Z" transform="translate(0 0)" fill="#eb9865"/><path d="M35.86,25.87l-.19-.08a20.46,20.46,0,0,1-6.94-4.52,20.29,20.29,0,0,1-3.28-4.35c-.15,0-.3,0-.45,0h-.12a20.62,20.62,0,0,0,3.48,4.69c5.28,5.27,13,7.18,21.49,6.08,0-.15,0-.29,0-.43A28.58,28.58,0,0,1,35.86,25.87Z" transform="translate(0 0)" fill="#eb9865"/><path d="M33.62,24.28A20.06,20.06,0,0,1,29.1,20.9a19.83,19.83,0,0,1-3.1-4,5.14,5.14,0,0,1-.55.06,20.29,20.29,0,0,0,3.28,4.35,20.46,20.46,0,0,0,6.94,4.52A5.35,5.35,0,0,1,33.62,24.28Z" transform="translate(0 0)" fill="#eb9966"/><path d="M22.52,6.89,23,6.66A32.48,32.48,0,0,1,23.14.08l-.43,0A33,33,0,0,0,22.52,6.89Z" transform="translate(0 0)" fill="#eb9966"/><path d="M38.34,26.18a5.32,5.32,0,0,1-2.48-.31,28.58,28.58,0,0,0,14,1.42l0-.43A29.75,29.75,0,0,1,38.34,26.18Z" transform="translate(0 0)" fill="#eb9966"/><path d="M39.39,26h0a4.94,4.94,0,0,1-1,.23,29.75,29.75,0,0,0,11.58.68c0-.14,0-.28,0-.43A29.59,29.59,0,0,1,39.39,26Z" transform="translate(0 0)" fill="#ec9a66"/><path d="M23,6.66c.14-.06.3-.09.44-.14A32.2,32.2,0,0,1,23.57,0l-.43,0A32.48,32.48,0,0,0,23,6.66Z" transform="translate(0 0)" fill="#ec9a66"/><path d="M33.62,24.28a5.3,5.3,0,0,1-.63-1,18.78,18.78,0,0,1-3.52-2.79,19.39,19.39,0,0,1-3-3.81,4.25,4.25,0,0,1-.51.14,19.83,19.83,0,0,0,3.1,4A20.06,20.06,0,0,0,33.62,24.28Z" transform="translate(0 0)" fill="#ec9a66"/><path d="M33,23.32a5.31,5.31,0,0,1-.34-.81.08.08,0,0,1,0,0,18.68,18.68,0,0,1-2.8-2.31A19.45,19.45,0,0,1,27,16.57c-.16.06-.33.1-.5.15a19.39,19.39,0,0,0,3,3.81A18.78,18.78,0,0,0,33,23.32Z" transform="translate(0 0)" fill="#ec9b66"/><path d="M23.4,6.52c.15,0,.3-.1.45-.13A31.66,31.66,0,0,1,24,0h-.42A32.2,32.2,0,0,0,23.4,6.52Z" transform="translate(0 0)" fill="#ec9b66"/><path d="M40.14,25.64a4.93,4.93,0,0,1-.75.31h0A29.59,29.59,0,0,0,50,26.43c0-.14,0-.28,0-.42A29.65,29.65,0,0,1,40.14,25.64Z" transform="translate(0 0)" fill="#ec9b66"/><path d="M23.85,6.39a3.5,3.5,0,0,1,.45-.07A30.46,30.46,0,0,1,24.42,0L24,0A31.66,31.66,0,0,0,23.85,6.39Z" transform="translate(0 0)" fill="#ec9c67"/><path d="M32.64,22.47a7.22,7.22,0,0,1-.18-.74A20.59,20.59,0,0,1,30.2,19.8a19.31,19.31,0,0,1-2.73-3.47c-.15.08-.3.17-.46.24a19.45,19.45,0,0,0,2.83,3.59A18.68,18.68,0,0,0,32.64,22.47Z" transform="translate(0 0)" fill="#ec9c67"/><path d="M40.76,25.28a6.27,6.27,0,0,1-.62.36A29.65,29.65,0,0,0,50,26c0-.14,0-.28,0-.43A29.43,29.43,0,0,1,40.76,25.28Z" transform="translate(0 0)" fill="#ec9c67"/><path d="M41.26,24.9a5,5,0,0,1-.5.38,29.43,29.43,0,0,0,9.23.3c0-.14,0-.28,0-.42A29.47,29.47,0,0,1,41.26,24.9Z" transform="translate(0 0)" fill="#ec9d67"/><path d="M24.3,6.32l.45,0A31.54,31.54,0,0,1,24.84,0h-.42A30.46,30.46,0,0,0,24.3,6.32Z" transform="translate(0 0)" fill="#ec9d67"/><path d="M32.46,21.73c0-.24-.06-.48-.07-.71a20.92,20.92,0,0,1-1.82-1.59,18.8,18.8,0,0,1-2.65-3.34,4.92,4.92,0,0,1-.45.24A19.31,19.31,0,0,0,30.2,19.8,20.59,20.59,0,0,0,32.46,21.73Z" transform="translate(0 0)" fill="#ec9d67"/><path d="M32.39,21c0-.22,0-.44,0-.65a18.11,18.11,0,0,1-1.47-1.31,19.15,19.15,0,0,1-2.62-3.28c-.13.1-.26.22-.4.31a18.8,18.8,0,0,0,2.65,3.34A20.92,20.92,0,0,0,32.39,21Z" transform="translate(0 0)" fill="#ed9e67"/><path d="M41.67,24.49a5.29,5.29,0,0,1-.41.41,29.47,29.47,0,0,0,8.74.26V25c0-.09,0-.18,0-.26A29.07,29.07,0,0,1,41.67,24.49Z" transform="translate(0 0)" fill="#ed9e67"/><path d="M24.75,6.28c.09,0,.17,0,.25,0l.21,0A30.63,30.63,0,0,1,25.26,0h-.42A31.54,31.54,0,0,0,24.75,6.28Z" transform="translate(0 0)" fill="#ed9e67"/><path d="M32.41,20.37a5.58,5.58,0,0,1,.09-.59c-.41-.35-.81-.7-1.19-1.09a18.7,18.7,0,0,1-2.59-3.24,4.39,4.39,0,0,1-.4.33,19.15,19.15,0,0,0,2.62,3.28A18.11,18.11,0,0,0,32.41,20.37Z" transform="translate(0 0)" fill="#ed9f67"/><path d="M25.21,6.28a3.73,3.73,0,0,1,.47,0,29.49,29.49,0,0,1,0-6.3h-.43A30.63,30.63,0,0,0,25.21,6.28Z" transform="translate(0 0)" fill="#ed9f67"/><path d="M42,24.08a4.47,4.47,0,0,1-.35.41,29.07,29.07,0,0,0,8.32.25c0-.15,0-.29,0-.43A28.4,28.4,0,0,1,42,24.08Z" transform="translate(0 0)" fill="#ed9f67"/><path d="M25.68,6.32a4,4,0,0,1,.48.07,28.7,28.7,0,0,1,0-6.36h-.43A29.49,29.49,0,0,0,25.68,6.32Z" transform="translate(0 0)" fill="#eda068"/><path d="M32.5,19.78a4.94,4.94,0,0,1,.15-.55c-.34-.29-.66-.59-1-.9A18.48,18.48,0,0,1,29.08,15c-.12.14-.23.28-.36.41a18.7,18.7,0,0,0,2.59,3.24C31.69,19.08,32.09,19.43,32.5,19.78Z" transform="translate(0 0)" fill="#eda068"/><path d="M42.31,23.65c-.09.15-.19.29-.29.43a28.4,28.4,0,0,0,8,.23c0-.14,0-.28,0-.43A27.79,27.79,0,0,1,42.31,23.65Z" transform="translate(0 0)" fill="#eda068"/><path d="M26.16,6.39a4.42,4.42,0,0,1,.48.15,28.58,28.58,0,0,1-.1-6.49l-.42,0A28.7,28.7,0,0,0,26.16,6.39Z" transform="translate(0 0)" fill="#eda168"/><path d="M32.65,19.23a4.81,4.81,0,0,1,.2-.53c-.28-.24-.55-.48-.81-.74a18.63,18.63,0,0,1-2.62-3.34,4.46,4.46,0,0,1-.34.42,18.48,18.48,0,0,0,2.59,3.29C32,18.64,32.31,18.94,32.65,19.23Z" transform="translate(0 0)" fill="#eda168"/><path d="M42.55,23.22l-.24.43a27.79,27.79,0,0,0,7.66.23c0-.14,0-.28,0-.42A27.89,27.89,0,0,1,42.55,23.22Z" transform="translate(0 0)" fill="#eda168"/><path d="M26.64,6.54a3.52,3.52,0,0,1,.49.16A27.43,27.43,0,0,1,27,.08l-.43,0A28.58,28.58,0,0,0,26.64,6.54Z" transform="translate(0 0)" fill="#eea268"/><path d="M42.74,22.77c-.06.15-.12.3-.19.45a27.89,27.89,0,0,0,7.4.24l0-.43A27.08,27.08,0,0,1,42.74,22.77Z" transform="translate(0 0)" fill="#eea268"/><path d="M32.85,18.7q.1-.24.24-.48c-.23-.21-.46-.41-.68-.63a18.11,18.11,0,0,1-2.7-3.49,3.29,3.29,0,0,1-.29.52A18.63,18.63,0,0,0,32,18C32.3,18.22,32.57,18.46,32.85,18.7Z" transform="translate(0 0)" fill="#eea268"/><path d="M42.89,22.32a4,4,0,0,1-.15.45,27.08,27.08,0,0,0,7.18.26c0-.14,0-.29,0-.43A26.49,26.49,0,0,1,42.89,22.32Z" transform="translate(0 0)" fill="#eea369"/><path d="M27.13,6.7a5.45,5.45,0,0,1,.53.29A26,26,0,0,1,27.4.12L27,.08A27.43,27.43,0,0,0,27.13,6.7Z" transform="translate(0 0)" fill="#eea369"/><path d="M33.09,18.22c.09-.15.18-.3.28-.45-.2-.18-.4-.36-.59-.55A17.22,17.22,0,0,1,30,13.54a3.61,3.61,0,0,1-.27.56,18.11,18.11,0,0,0,2.7,3.49C32.63,17.81,32.86,18,33.09,18.22Z" transform="translate(0 0)" fill="#eea369"/><path d="M27.66,7a6.37,6.37,0,0,1,.55.35A25.72,25.72,0,0,1,27.82.16l-.42,0A26,26,0,0,0,27.66,7Z" transform="translate(0 0)" fill="#eea469"/><path d="M33.37,17.77a4.23,4.23,0,0,1,.33-.41c-.19-.17-.38-.33-.55-.51a17,17,0,0,1-3-4,6.37,6.37,0,0,1-.21.66,17.22,17.22,0,0,0,2.8,3.68C33,17.41,33.17,17.59,33.37,17.77Z" transform="translate(0 0)" fill="#eea469"/><path d="M43,21.86a3.43,3.43,0,0,1-.11.46,26.49,26.49,0,0,0,7,.28c0-.14,0-.28,0-.42A26.17,26.17,0,0,1,43,21.86Z" transform="translate(0 0)" fill="#eea469"/><path d="M28.21,7.34a7.08,7.08,0,0,1,.59.5A24.77,24.77,0,0,1,28.25.22L27.82.16A25.72,25.72,0,0,0,28.21,7.34Z" transform="translate(0 0)" fill="#eea569"/><path d="M33.7,17.36c.11-.13.23-.25.35-.37l-.54-.5A17.58,17.58,0,0,1,30.31,12a6.14,6.14,0,0,1-.12.86,17,17,0,0,0,3,4C33.32,17,33.51,17.19,33.7,17.36Z" transform="translate(0 0)" fill="#eea569"/><path d="M43.07,21.39c0,.16,0,.32-.07.47a26.17,26.17,0,0,0,6.84.32l-.06-.43A25.57,25.57,0,0,1,43.07,21.39Z" transform="translate(0 0)" fill="#eea569"/><path d="M43.09,20.92c0,.16,0,.31,0,.47a25.57,25.57,0,0,0,6.71.36c0-.14,0-.28-.05-.42A25.4,25.4,0,0,1,43.09,20.92Z" transform="translate(0 0)" fill="#eea66a"/><path d="M30.31,12a17.58,17.58,0,0,0,3.2,4.47l.54.5c.13-.12.26-.24.4-.35l-.57-.52a17,17,0,0,1-3.61-5.39,6.4,6.4,0,0,1,.08.88C30.35,11.75,30.32,11.88,30.31,12Z" transform="translate(0 0)" fill="#eea66a"/><path d="M28.8,7.84a5.9,5.9,0,0,1,.8,1.06A23.65,23.65,0,0,1,28.67.27L28.25.22A24.77,24.77,0,0,0,28.8,7.84Z" transform="translate(0 0)" fill="#eea66a"/><path d="M29.6,8.9a5.51,5.51,0,0,1,.67,1.83,17,17,0,0,0,3.61,5.39l.57.52c.14-.1.28-.21.43-.3-.21-.19-.43-.38-.63-.59C30.39,11.89,28.74,6.43,29.1.34L28.67.27A23.65,23.65,0,0,0,29.6,8.9Z" transform="translate(0 0)" fill="#efa76a"/><path d="M43.08,20.43a4,4,0,0,1,0,.49,25.4,25.4,0,0,0,6.64.41c0-.14,0-.29-.07-.43A24.08,24.08,0,0,1,43.08,20.43Z" transform="translate(0 0)" fill="#efa76a"/><path d="M43,19.93c0,.16.05.33.07.5a24.08,24.08,0,0,0,6.58.47c0-.14,0-.29-.08-.43A23.56,23.56,0,0,1,43,19.93Z" transform="translate(0 0)" fill="#efa86a"/><path d="M34.25,15.75c.2.21.42.4.63.59q.24-.15.48-.27c-.25-.22-.5-.45-.74-.69-3.76-3.75-5.39-9-5.09-15L29.1.34C28.74,6.43,30.39,11.89,34.25,15.75Z" transform="translate(0 0)" fill="#efa86a"/><path d="M34.62,15.38c.24.24.49.47.74.69a4.77,4.77,0,0,1,.52-.22c-.3-.27-.6-.55-.89-.84-3.66-3.65-5.26-8.78-5-14.52L29.53.42C29.23,6.33,30.86,11.63,34.62,15.38Z" transform="translate(0 0)" fill="#efa96a"/><path d="M42.89,19.4a4.54,4.54,0,0,1,.12.53,23.56,23.56,0,0,0,6.57.54c0-.14,0-.29-.07-.43A23.43,23.43,0,0,1,42.89,19.4Z" transform="translate(0 0)" fill="#efa96a"/><path d="M35,15c.29.29.59.57.89.84l.21-.08a2.85,2.85,0,0,1,.39-.11c-.39-.32-.77-.65-1.13-1-3.54-3.55-5.13-8.51-5-14.06L30,.49C29.73,6.23,31.33,11.36,35,15Z" transform="translate(0 0)" fill="#efaa6b"/><path d="M42.7,18.85c0,.12.1.24.14.36s0,.12,0,.19a23.43,23.43,0,0,0,6.62.64c0-.15-.07-.29-.1-.44A22,22,0,0,1,42.7,18.85Z" transform="translate(0 0)" fill="#efaa6b"/><path d="M42.42,18.26a4.53,4.53,0,0,1,.28.59,22,22,0,0,0,6.71.75c0-.14-.07-.29-.1-.43A21.75,21.75,0,0,1,42.42,18.26Z" transform="translate(0 0)" fill="#f0ab6b"/><path d="M35.35,14.65c.36.36.74.69,1.13,1a5.39,5.39,0,0,1,.68-.12,17.08,17.08,0,0,1-1.44-1.26c-3.43-3.44-5-8.23-4.89-13.59L30.4.59C30.22,6.14,31.81,11.1,35.35,14.65Z" transform="translate(0 0)" fill="#f0ab6b"/><path d="M35.72,14.28a17.08,17.08,0,0,0,1.44,1.26,4.61,4.61,0,0,1,.83,0,16.17,16.17,0,0,1-1.9-1.61C32.76,10.58,31.2,6,31.26.79l-.43-.1C30.71,6.05,32.29,10.84,35.72,14.28Z" transform="translate(0 0)" fill="#f0ac6b"/><path d="M42,17.6a5.74,5.74,0,0,1,.43.66,21.75,21.75,0,0,0,6.89.91c0-.14-.06-.29-.1-.43A20.68,20.68,0,0,1,42,17.6Z" transform="translate(0 0)" fill="#f0ac6b"/><path d="M36.09,13.91A16.17,16.17,0,0,0,38,15.52a4.93,4.93,0,0,1,1.21.19,14.61,14.61,0,0,1-2.74-2.17C33.24,10.33,31.71,5.89,31.71.92L31.26.79C31.2,6,32.76,10.58,36.09,13.91Z" transform="translate(0 0)" fill="#f0ad6c"/><path d="M42,17.6a20.68,20.68,0,0,0,7.22,1.14c0-.15-.09-.3-.13-.45a19.75,19.75,0,0,1-7.93-1.55A5.26,5.26,0,0,1,42,17.6Z" transform="translate(0 0)" fill="#f0ad6c"/><path d="M39.2,15.71a5.24,5.24,0,0,1,1.95,1,19.75,19.75,0,0,0,7.93,1.55L49,17.85a17.11,17.11,0,0,1-12.14-4.67A17.11,17.11,0,0,1,32.15,1L31.71.92c0,5,1.53,9.41,4.75,12.62A14.61,14.61,0,0,0,39.2,15.71Z" transform="translate(0 0)" fill="#f0ae6c"/><path d="M49,17.85c-.05-.15-.09-.3-.14-.45a16.66,16.66,0,0,1-11.63-4.59A16.66,16.66,0,0,1,32.6,1.18L32.15,1a17.11,17.11,0,0,0,4.67,12.14A17.11,17.11,0,0,0,49,17.85Z" transform="translate(0 0)" fill="#f1af6c"/><path d="M48.82,17.4,48.67,17a16.27,16.27,0,0,1-11.11-4.51A16.27,16.27,0,0,1,33.05,1.33l-.45-.15a16.66,16.66,0,0,0,4.59,11.63A16.66,16.66,0,0,0,48.82,17.4Z" transform="translate(0 0)" fill="#f1b06d"/><path d="M48.67,17c-.05-.15-.1-.31-.16-.46a15.9,15.9,0,0,1-10.58-4.42A15.9,15.9,0,0,1,33.51,1.49l-.46-.16a16.27,16.27,0,0,0,4.51,11.11A16.27,16.27,0,0,0,48.67,17Z" transform="translate(0 0)" fill="#f1b16d"/><path d="M48.51,16.49,48.33,16a15.48,15.48,0,0,1-10-4.32A15.48,15.48,0,0,1,34,1.67l-.47-.18a15.9,15.9,0,0,0,4.42,10.58A15.9,15.9,0,0,0,48.51,16.49Z" transform="translate(0 0)" fill="#f1b26d"/><path d="M48.33,16l-.18-.47a15.17,15.17,0,0,1-9.49-4.21,15.17,15.17,0,0,1-4.21-9.49L34,1.67a15.48,15.48,0,0,0,4.32,10A15.48,15.48,0,0,0,48.33,16Z" transform="translate(0 0)" fill="#f2b36d"/><path d="M48.15,15.55l-.21-.49A14.7,14.7,0,0,1,39,11a14.7,14.7,0,0,1-4.09-8.91l-.49-.21a15.17,15.17,0,0,0,4.21,9.49A15.17,15.17,0,0,0,48.15,15.55Z" transform="translate(0 0)" fill="#f2b46e"/><path d="M47.94,15.06l-.22-.49a14.38,14.38,0,0,1-8.32-4,14.38,14.38,0,0,1-4-8.32l-.49-.22A14.7,14.7,0,0,0,39,11,14.7,14.7,0,0,0,47.94,15.06Z" transform="translate(0 0)" fill="#f2b56e"/><path d="M47.72,14.57l-.24-.51a13.91,13.91,0,0,1-7.71-3.83,13.91,13.91,0,0,1-3.83-7.71l-.51-.24a14.38,14.38,0,0,0,4,8.32A14.38,14.38,0,0,0,47.72,14.57Z" transform="translate(0 0)" fill="#f2b66e"/><path d="M47.48,14.06c-.08-.18-.18-.36-.27-.53a13.53,13.53,0,0,1-7.07-3.67,13.53,13.53,0,0,1-3.67-7.07c-.17-.09-.35-.19-.53-.27a13.91,13.91,0,0,0,3.83,7.71A13.91,13.91,0,0,0,47.48,14.06Z" transform="translate(0 0)" fill="#f2b76f"/><path d="M47.21,13.53,46.92,13A13.26,13.26,0,0,1,40.5,9.5,13.26,13.26,0,0,1,37,3.08l-.55-.29a13.53,13.53,0,0,0,3.67,7.07A13.53,13.53,0,0,0,47.21,13.53Z" transform="translate(0 0)" fill="#f3b86f"/><path d="M46.92,13l-.33-.58a12.85,12.85,0,0,1-5.72-3.27A12.85,12.85,0,0,1,37.6,3.41L37,3.08A13.26,13.26,0,0,0,40.5,9.5,13.26,13.26,0,0,0,46.92,13Z" transform="translate(0 0)" fill="#f3b96f"/><path d="M46.59,12.4l-.38-.63a12.32,12.32,0,0,1-5-3,12.32,12.32,0,0,1-3-5l-.63-.38a12.85,12.85,0,0,0,3.27,5.72A12.85,12.85,0,0,0,46.59,12.4Z" transform="translate(0 0)" fill="#f3ba70"/><path d="M46.21,11.77c-.15-.23-.29-.47-.45-.7a11.86,11.86,0,0,1-4.15-2.68,11.86,11.86,0,0,1-2.68-4.15c-.23-.16-.47-.3-.7-.45a12.32,12.32,0,0,0,3,5A12.32,12.32,0,0,0,46.21,11.77Z" transform="translate(0 0)" fill="#f3bb70"/><path d="M45.76,11.07c-.18-.27-.37-.53-.56-.8A11.77,11.77,0,0,1,42,8,11.77,11.77,0,0,1,39.73,4.8l-.8-.56a11.86,11.86,0,0,0,2.68,4.15A11.86,11.86,0,0,0,45.76,11.07Z" transform="translate(0 0)" fill="#f4bc70"/><path d="M45.2,10.27c-.25-.34-.51-.68-.78-1a11.88,11.88,0,0,1-2.08-1.6,11.88,11.88,0,0,1-1.6-2.08c-.33-.27-.67-.53-1-.78A11.77,11.77,0,0,0,42,8,11.77,11.77,0,0,0,45.2,10.27Z" transform="translate(0 0)" fill="#f4bd70"/><path d="M44.42,9.26a25.6,25.6,0,0,0-3.68-3.68,11.88,11.88,0,0,0,1.6,2.08A11.88,11.88,0,0,0,44.42,9.26Z" transform="translate(0 0)" fill="#f4be71"/></g></svg>