<svg width="121px" height="55px" viewBox="0 0 121 55" version="1.1" xmlns="http://www.w3.org/2000/svg" xmlns:xlink="http://www.w3.org/1999/xlink">
    <title>kinos_ee</title>
    <g id="Page-1" stroke="none" stroke-width="1" fill="none" fill-rule="evenodd">
        <g id="kinos_ee" fill="#FFFFFF">
            <polygon id="Shape" fill-rule="nonzero" points="69.89 35.5 72.27 35.5 69.05 27.35 72.27 20.8 70 20.8 67 27.21 67 20.8 64.63 20.8 64.63 35.5 66.94 35.5 66.94 31 67.66 29.65"></polygon>
            <polygon id="Shape" fill-rule="nonzero" points="73.32 35.5 75.63 35.5 75.63 20.8 73.32 20.8"></polygon>
            <polygon id="Shape" fill-rule="nonzero" points="82.24 35.5 84.61 35.5 84.61 20.8 82.61 20.8 82.61 29.6 80.18 20.8 77.28 20.8 77.28 35.5 79.36 35.5 79.36 24.86"></polygon>
            <path d="M88.39,24.18 C88.3519237,23.7781253 88.4701047,23.377026 88.72,23.06 C89.2162417,22.6191834 89.9637583,22.6191834 90.46,23.06 C90.7098953,23.377026 90.8280763,23.7781253 90.79,24.18 L90.79,32.12 C90.8296657,32.5251126 90.7114522,32.9299041 90.46,33.25 C89.9604503,33.6820239 89.2195497,33.6820239 88.72,33.25 C88.4685478,32.9299041 88.3503343,32.5251126 88.39,32.12 L88.39,24.18 Z M86.08,32 C86.0202062,32.9919515 86.3503435,33.9680096 87,34.72 C88.4968961,36.0003509 90.7031039,36.0003509 92.2,34.72 C92.8387452,33.9628759 93.1610873,32.9886864 93.1,32 L93.1,24.33 C93.1667855,23.3327905 92.8400927,22.3491222 92.19,21.59 C90.6931039,20.3096491 88.4868961,20.3096491 86.99,21.59 C86.3399073,22.3491222 86.0132145,23.3327905 86.08,24.33 L86.08,32 Z" id="Shape" fill-rule="nonzero"></path>
            <path d="M94.63,26.16 C94.8333421,26.6624931 95.1170446,27.1285758 95.47,27.54 C95.8013408,27.9430509 96.1623466,28.3207699 96.55,28.67 C96.94,29.01 97.3,29.35 97.63,29.67 C97.9563513,29.9951334 98.2387491,30.3615782 98.47,30.76 C98.7023027,31.1641123 98.8198631,31.6239807 98.81,32.09 C98.849678,32.4889454 98.731181,32.8875262 98.48,33.2 C98.2457936,33.420879 97.9315099,33.5364776 97.61,33.52 C97.2890193,33.5330518 96.9760231,33.4179267 96.74,33.2 C96.480615,32.8918884 96.3610674,32.4897736 96.41,32.09 L96.41,31.09 L94.23,31.09 L94.23,32 C94.1679105,32.9929635 94.4780938,33.9734279 95.1,34.75 C96.5883619,36.0020754 98.7616381,36.0020754 100.25,34.75 C100.86833,33.9719939 101.174903,32.9916717 101.11,32 C101.127034,31.3760851 101.011136,30.7556853 100.77,30.18 C100.560272,29.6798418 100.280836,29.2118711 99.94,28.79 C99.6085545,28.3901485 99.2475386,28.0157617 98.86,27.67 C98.48,27.33 98.12,26.98 97.78,26.67 C97.4511004,26.3471187 97.1684238,25.9803122 96.94,25.58 C96.7087419,25.1718286 96.5913207,24.709051 96.6,24.24 C96.5602935,23.8410922 96.6708341,23.4417199 96.91,23.12 C97.1307317,22.8899242 97.4418457,22.7691388 97.76,22.79 C98.0761047,22.7816658 98.3823282,22.9005526 98.61,23.12 C98.8358555,23.44771 98.9418097,23.8432726 98.91,24.24 L98.91,24.85 L101.09,24.85 L101.09,24.39 C101.158027,23.4042668 100.858806,22.4282369 100.25,21.65 C98.7871385,20.3699943 96.6028615,20.3699943 95.14,21.65 C94.5276235,22.426817 94.2247977,23.4029852 94.29,24.39 C94.2816957,24.9969903 94.397391,25.5992868 94.63,26.16 Z" id="Shape" fill-rule="nonzero"></path>
            <polygon id="Shape" fill-rule="nonzero" points="102.33 33.28 102.33 35.5 104.55 35.5 104.55 33.28"></polygon>
            <polygon id="Shape" fill-rule="nonzero" points="108.54 22.9 112.54 22.9 112.54 20.8 106.24 20.8 106.24 35.5 112.54 35.5 112.54 33.4 108.54 33.4 108.54 29.1 111.71 29.1 111.71 27 108.54 27"></polygon>
            <polygon id="Shape" fill-rule="nonzero" points="116.27 22.9 120.27 22.9 120.27 20.8 114 20.8 114 35.5 120.3 35.5 120.3 33.4 116.3 33.4 116.3 29.1 119.47 29.1 119.47 27 116.3 27"></polygon>
            <path d="M27.5,0 C12.3121694,-9.29986408e-16 1.85997282e-15,12.3121694 0,27.5 C-1.85997282e-15,42.6878306 12.3121694,55 27.5,55 C42.6878306,55 55,42.6878306 55,27.5 C55,20.2065465 52.1026869,13.2118139 46.9454365,8.05456352 C41.7881861,2.89731311 34.7934535,4.46595222e-16 27.5,0 Z M27.5,6.88 C30.7529572,6.88 33.39,9.51704282 33.39,12.77 C33.39,16.0229572 30.7529572,18.66 27.5,18.66 C24.2470428,18.66 21.61,16.0229572 21.61,12.77 C21.61,9.51704282 24.2470428,6.88 27.5,6.88 Z M7.88,21.13 C8.88282055,18.0358973 12.203796,16.3403341 15.2980735,17.342615 C18.3923511,18.344896 20.0884934,21.6655756 19.0867521,24.760028 C18.0850108,27.8544803 14.764627,29.5512017 11.67,28.55 C8.57771725,27.5437657 6.88263095,24.2251535 7.88,21.13 Z M23.61,42.88 C22.2104391,44.8144464 19.7829381,45.7146653 17.4604937,45.160494 C15.1380493,44.6063227 13.3785571,42.7070223 13.0032314,40.3490604 C12.6279058,37.9910985 13.7107463,35.6393733 15.7463548,34.3915143 C17.7819633,33.1436554 20.368997,33.2456919 22.3,34.65 C23.5656923,35.5671895 24.4149067,36.9498655 24.6606145,38.4935109 C24.9063224,40.0371564 24.5283712,41.6151649 23.61,42.88 Z M27.5,29.79 C26.2352679,29.79 25.21,28.7647321 25.21,27.5 C25.21,26.2352679 26.2352679,25.21 27.5,25.21 C28.7647321,25.21 29.79,26.2352679 29.79,27.5 C29.7926733,28.1081613 29.5522647,28.6921863 29.1222255,29.1222255 C28.6921863,29.5522647 28.1081613,29.7926733 27.5,29.79 Z M39.62,44.19 C37.6928411,45.5982413 35.1063171,45.7041967 33.070433,44.4582991 C31.0345489,43.2124016 29.9518522,40.8609975 30.3288407,38.5041003 C30.7058291,36.1472031 32.4679622,34.2508328 34.7908943,33.702133 C37.1138263,33.1534331 39.5382529,34.0608959 40.93,36 C42.8153262,38.6268019 42.2306203,42.28233 39.62,44.19 Z M43.33,28.55 C40.235373,29.5512017 36.9149892,27.8544803 35.9132479,24.760028 C34.9115066,21.6655756 36.6076489,18.344896 39.7019265,17.342615 C42.796204,16.3403341 46.1171795,18.0358973 47.12,21.13 C47.6017954,22.6165317 47.4731207,24.2335936 46.7623008,25.6252251 C46.051481,27.0168566 44.8167835,28.0689824 43.33,28.55 Z" id="Shape">
            <animateTransform attributeType="xml"
              attributeName="transform"
              type="rotate"
              from="0 27.5 27.5"
              to="360 27.5 27.5"
              dur="10s"
              repeatCount="indefinite" />
            </path>
        </g>
    </g>
</svg>
