<svg xmlns="http://www.w3.org/2000/svg" width="19.4mm" height="19.4mm" viewBox="0 0 54.99 54.99"><title>kinos_ee_red</title><path d="M27.5,0A27.5,27.5,0,1,0,55,27.5,27.5,27.5,0,0,0,27.5,0Zm0,6.88a5.89,5.89,0,1,1-5.89,5.89A5.89,5.89,0,0,1,27.5,6.88ZM7.88,21.13a5.89,5.89,0,1,1,3.79,7.42A5.89,5.89,0,0,1,7.88,21.13ZM23.61,42.87a5.9,5.9,0,1,1-1.32-8.23h0a5.88,5.88,0,0,1,1.31,8.22ZM27.5,29.79a2.29,2.29,0,1,1,2.29-2.29,2.29,2.29,0,0,1-2.29,2.29ZM39.61,44.18A5.89,5.89,0,1,1,40.89,36l0,0A5.88,5.88,0,0,1,39.61,44.18Zm3.71-15.63a5.89,5.89,0,1,1,3.79-7.42,5.89,5.89,0,0,1-3.79,7.42Z" transform="translate(0 0)" fill="#d7404b"/></svg>