<svg xmlns="http://www.w3.org/2000/svg" width="55.64mm" height="55.64mm" viewBox="0 0 157.73 157.73"><title>new-window</title><path d="M149.73,90.76a8,8,0,0,0-8,8v40.47a2.54,2.54,0,0,1-2.5,2.5H18.51a2.54,2.54,0,0,1-2.51-2.5V18.51A2.54,2.54,0,0,1,18.51,16H59.73a8,8,0,1,0,0-16H18.51A18.53,18.53,0,0,0,0,18.51V139.23a18.52,18.52,0,0,0,18.51,18.5H139.23a18.52,18.52,0,0,0,18.5-18.5V98.76A8,8,0,0,0,149.73,90.76Z" fill="#fff"/><path d="M139.23,0H112.7a8,8,0,0,0,0,16h17.6L73.15,73.15A8,8,0,0,0,84.46,84.47L141.73,27.2V44.92a8,8,0,0,0,16,0V18.51A18.52,18.52,0,0,0,139.23,0Z" fill="#fff"/></svg>