<svg xmlns="http://www.w3.org/2000/svg" width="7.05mm" height="8.77mm" viewBox="0 0 19.98 24.86"><title>top-3</title><polygon points="7.88 24.86 5.86 22.9 3.17 23.89 5.3 13.54 10.01 14.52 7.88 24.86" fill="#aa2e3a"/><polygon points="12.09 24.86 14.11 22.9 16.81 23.89 14.68 13.54 9.96 14.52 12.09 24.86" fill="#aa2e3a"/><path d="M11.57.69l.06.06a2.92,2.92,0,0,0,2.69.88l.09,0A2.17,2.17,0,0,1,17,3.47v.09a2.92,2.92,0,0,0,1.66,2.29l.09,0a2.16,2.16,0,0,1,1,3l0,.08a2.93,2.93,0,0,0,0,2.84l0,.08a2.16,2.16,0,0,1-1,3l-.09,0A2.92,2.92,0,0,0,17,17.22v.09a2.17,2.17,0,0,1-2.56,1.86l-.09,0a2.92,2.92,0,0,0-2.69.88l-.06.06a2.15,2.15,0,0,1-3.16,0L8.35,20a2.93,2.93,0,0,0-2.7-.88l-.09,0A2.16,2.16,0,0,1,3,17.31v-.09a3,3,0,0,0-1.67-2.29l-.08,0a2.15,2.15,0,0,1-1-3l0-.08A3,3,0,0,0,.32,9l0-.08a2.15,2.15,0,0,1,1-3l.08,0A3,3,0,0,0,3,3.56V3.47A2.16,2.16,0,0,1,5.56,1.61l.09,0A2.93,2.93,0,0,0,8.35.75L8.41.69A2.15,2.15,0,0,1,11.57.69Z" fill="#d7404b"/><path d="M8.79,9.56H9.84a1.47,1.47,0,0,0,1.1-.38,1.33,1.33,0,0,0,.36-1,1.2,1.2,0,0,0-.36-.93,1.37,1.37,0,0,0-1-.33A1.44,1.44,0,0,0,9,7.25a1,1,0,0,0-.38.8H6.69A2.47,2.47,0,0,1,7.1,6.66a2.85,2.85,0,0,1,1.17-1,3.9,3.9,0,0,1,1.65-.35,3.68,3.68,0,0,1,2.45.75,2.54,2.54,0,0,1,.88,2.06,2,2,0,0,1-.41,1.24,2.82,2.82,0,0,1-1.08.88,2.44,2.44,0,0,1,1.24.89,2.46,2.46,0,0,1,.41,1.41,2.58,2.58,0,0,1-1,2.1,3.83,3.83,0,0,1-2.53.8,3.66,3.66,0,0,1-2.42-.78,2.56,2.56,0,0,1-.93-2.06H8.52a1.14,1.14,0,0,0,.42.91,1.56,1.56,0,0,0,1,.35,1.54,1.54,0,0,0,1.1-.37,1.29,1.29,0,0,0,.39-1q0-1.47-1.62-1.47h-1Z" fill="#fff"/></svg>