<svg xmlns="http://www.w3.org/2000/svg" width="7.05mm" height="8.77mm" viewBox="0 0 19.98 24.86"><title>top-2</title><polygon points="7.88 24.86 5.86 22.9 3.17 23.89 5.3 13.54 10.01 14.52 7.88 24.86" fill="#aa2e3a"/><polygon points="12.09 24.86 14.11 22.9 16.81 23.89 14.68 13.54 9.96 14.52 12.09 24.86" fill="#aa2e3a"/><path d="M11.57.69l.06.06a2.92,2.92,0,0,0,2.69.88l.09,0A2.17,2.17,0,0,1,17,3.47v.09a2.92,2.92,0,0,0,1.66,2.29l.09,0a2.16,2.16,0,0,1,1,3l0,.08a2.93,2.93,0,0,0,0,2.84l0,.08a2.16,2.16,0,0,1-1,3l-.09,0A2.92,2.92,0,0,0,17,17.22v.09a2.17,2.17,0,0,1-2.56,1.86l-.09,0a2.92,2.92,0,0,0-2.69.88l-.06.06a2.15,2.15,0,0,1-3.16,0L8.35,20a2.93,2.93,0,0,0-2.7-.88l-.09,0A2.16,2.16,0,0,1,3,17.31v-.09a3,3,0,0,0-1.67-2.29l-.08,0a2.15,2.15,0,0,1-1-3l0-.08A3,3,0,0,0,.32,9l0-.08a2.15,2.15,0,0,1,1-3l.08,0A3,3,0,0,0,3,3.56V3.47A2.16,2.16,0,0,1,5.56,1.61l.09,0A2.93,2.93,0,0,0,8.35.75L8.41.69A2.15,2.15,0,0,1,11.57.69Z" fill="#d7404b"/><path d="M13.46,15.18H6.71V13.84l3.19-3.4a8.25,8.25,0,0,0,1-1.25,2,2,0,0,0,.31-1,1.52,1.52,0,0,0-.33-1,1.2,1.2,0,0,0-.95-.37,1.28,1.28,0,0,0-1,.45,1.8,1.8,0,0,0-.38,1.2h-2a3.29,3.29,0,0,1,.43-1.64A3,3,0,0,1,8.16,5.61a3.69,3.69,0,0,1,1.78-.42,3.47,3.47,0,0,1,2.36.73A2.6,2.6,0,0,1,13.14,8a3.31,3.31,0,0,1-.37,1.49,8.5,8.5,0,0,1-1.3,1.77L9.23,13.6h4.23Z" fill="#fff"/></svg>